<svg xmlns="http://www.w3.org/2000/svg" viewBox="0 0 1200 760" width="1200" height="760" role="img" aria-label="Mobile features grid">
  <defs>
    <linearGradient id="parchMF" x1="0" y1="0" x2="0" y2="1">
      <stop offset="0%" stop-color="#f6ebcb"></stop>
      <stop offset="100%" stop-color="#d9bf83"></stop>
    </linearGradient>
    <linearGradient id="solGrad2" x1="0" y1="0" x2="1" y2="0">
      <stop offset="0%" stop-color="#9945ff"></stop>
      <stop offset="100%" stop-color="#14f195"></stop>
    </linearGradient>
    <linearGradient id="goldMF" x1="0" y1="0" x2="0" y2="1">
      <stop offset="0%" stop-color="#fff3b8"></stop>
      <stop offset="100%" stop-color="#c98f1d"></stop>
    </linearGradient>
  </defs>
  <rect width="1200" height="760" fill="url(#parchMF)"></rect>

  <text x="600" y="62" text-anchor="middle" font-family="Cinzel, serif" font-weight="800" font-size="38" fill="#2a1d0c">Built for Solana Mobile</text>
  <text x="600" y="92" text-anchor="middle" font-family="IM Fell English, serif" font-style="italic" font-size="18" fill="#5b3f1a">Native Android. Seeker-aware. dApp Store ready.</text>

  
  <g transform="translate(120, 120)">
    <rect width="960" height="50" fill="url(#solGrad2)" stroke="#2a1d0c" stroke-width="3"></rect>
    <text x="480" y="33" text-anchor="middle" font-family="Press Start 2P, monospace" font-size="14" fill="#0b0b0b">SOLANA  MOBILE  STACK  ·  MWA  ·  SEEKER  ·  dAPP STORE</text>
  </g>

  
  <g font-family="Inter, sans-serif" fill="#2a1d0c">
    
    <g transform="translate(120, 200)">
      <rect width="300" height="240" fill="#f6ebcb" stroke="#5b3f1a" stroke-width="3"></rect>
      <g transform="translate(20, 20)">
        
        <g shape-rendering="crispEdges">
          <rect x="0" y="0" width="48" height="72" fill="#2a1d0c"></rect>
          <rect x="4" y="6" width="40" height="54" fill="url(#solGrad2)"></rect>
          <rect x="20" y="64" width="8" height="4" fill="#f6ebcb"></rect>
          
          <rect x="56" y="20" width="6" height="6" fill="#f5c542"></rect>
          <rect x="62" y="20" width="6" height="6" fill="#f5c542"></rect>
          <rect x="68" y="20" width="6" height="6" fill="#f5c542"></rect>
          <rect x="74" y="20" width="6" height="6" fill="#f5c542"></rect>
          <rect x="80" y="14" width="6" height="6" fill="#f5c542"></rect>
          <rect x="80" y="26" width="6" height="6" fill="#f5c542"></rect>
          <rect x="86" y="14" width="6" height="6" fill="#f5c542"></rect>
          <rect x="86" y="26" width="6" height="6" fill="#f5c542"></rect>
        </g>
      </g>
      <text x="20" y="140" font-family="Cinzel, serif" font-weight="800" font-size="20">Mobile Wallet Adapter</text>
      <text x="20" y="170" font-size="13" fill="#5b3f1a">Connect, sign, and approve</text>
      <text x="20" y="188" font-size="13" fill="#5b3f1a">Solana transactions natively</text>
      <text x="20" y="206" font-size="13" fill="#5b3f1a">through the Solana Mobile flow.</text>
      <text x="20" y="226" font-family="Press Start 2P, monospace" font-size="9" fill="#9945ff">SOLANA MOBILE STACK</text>
    </g>

    
    <g transform="translate(450, 200)">
      <rect width="300" height="240" fill="#f6ebcb" stroke="#5b3f1a" stroke-width="3"></rect>
      <g transform="translate(20, 20)">
        <g shape-rendering="crispEdges">
          
          <rect x="0" y="40" width="80" height="40" fill="#2a1d0c"></rect>
          <rect x="4" y="44" width="72" height="32" fill="url(#goldMF)"></rect>
          <rect x="0" y="20" width="20" height="20" fill="#f5c542"></rect>
          <rect x="30" y="0" width="20" height="40" fill="#f5c542"></rect>
          <rect x="60" y="20" width="20" height="20" fill="#f5c542"></rect>
          <rect x="0" y="20" width="20" height="6" fill="#9b2424"></rect>
          <rect x="30" y="0" width="20" height="6" fill="#9b2424"></rect>
          <rect x="60" y="20" width="20" height="6" fill="#9b2424"></rect>
        </g>
      </g>
      <text x="20" y="140" font-family="Cinzel, serif" font-weight="800" font-size="20">Seeker Genesis Drop</text>
      <text x="20" y="170" font-size="13" fill="#5b3f1a">Genesis token holders mint</text>
      <text x="20" y="188" font-size="13" fill="#5b3f1a">a free special-edition iNFT</text>
      <text x="20" y="206" font-size="13" fill="#5b3f1a">Ælder. SKR-only drops too.</text>
      <text x="20" y="226" font-family="Press Start 2P, monospace" font-size="9" fill="#9945ff">SEEKER PERK</text>
    </g>

    
    <g transform="translate(780, 200)">
      <rect width="300" height="240" fill="#f6ebcb" stroke="#5b3f1a" stroke-width="3"></rect>
      <g transform="translate(20, 20)">
        <g shape-rendering="crispEdges">
          <rect x="0" y="0" width="60" height="70" fill="#2a1d0c"></rect>
          <rect x="4" y="4" width="52" height="62" fill="#f6ebcb"></rect>
          <rect x="10" y="14" width="40" height="6" fill="#9b2424"></rect>
          <rect x="10" y="26" width="32" height="4" fill="#7a6238"></rect>
          <rect x="10" y="34" width="36" height="4" fill="#7a6238"></rect>
          <rect x="10" y="42" width="28" height="4" fill="#7a6238"></rect>
          
          <rect x="62" y="-4" width="20" height="6" fill="#9b2424"></rect>
          <rect x="60" y="2" width="24" height="6" fill="#9b2424"></rect>
          <rect x="58" y="8" width="28" height="6" fill="#9b2424"></rect>
          <rect x="68" y="14" width="8" height="4" fill="#9b2424"></rect>
        </g>
      </g>
      <text x="20" y="140" font-family="Cinzel, serif" font-weight="800" font-size="20">Push Notifications</text>
      <text x="20" y="170" font-size="13" fill="#5b3f1a">Season starts, season ends,</text>
      <text x="20" y="188" font-size="13" fill="#5b3f1a">and live ranking alerts —</text>
      <text x="20" y="206" font-size="13" fill="#5b3f1a">your agent climbs, you know.</text>
      <text x="20" y="226" font-family="Press Start 2P, monospace" font-size="9" fill="#4a6b2a">RETENTION HOOK</text>
    </g>

    
    <g transform="translate(120, 460)">
      <rect width="300" height="240" fill="#f6ebcb" stroke="#5b3f1a" stroke-width="3"></rect>
      <g transform="translate(20, 20)">
        <g shape-rendering="crispEdges">
          <rect x="0" y="20" width="36" height="48" fill="#2a1d0c"></rect>
          <rect x="4" y="24" width="28" height="40" fill="url(#goldMF)"></rect>
          
          <rect x="44" y="20" width="4" height="48" fill="#9945ff"></rect>
          <rect x="52" y="14" width="4" height="60" fill="#9945ff"></rect>
          <rect x="60" y="8" width="4" height="72" fill="#9945ff"></rect>
          <rect x="68" y="14" width="4" height="60" fill="#9945ff"></rect>
          <rect x="76" y="20" width="4" height="48" fill="#9945ff"></rect>
        </g>
      </g>
      <text x="20" y="140" font-family="Cinzel, serif" font-weight="800" font-size="20">Haptics</text>
      <text x="20" y="170" font-size="13" fill="#5b3f1a">Tactile feedback for whispers,</text>
      <text x="20" y="188" font-size="13" fill="#5b3f1a">wins, warnings, and the exact</text>
      <text x="20" y="206" font-size="13" fill="#5b3f1a">moment GOLD enters your wallet.</text>
      <text x="20" y="226" font-family="Press Start 2P, monospace" font-size="9" fill="#9b2424">FEEL THE WIN</text>
    </g>

    
    <g transform="translate(450, 460)">
      <rect width="300" height="240" fill="#f6ebcb" stroke="#5b3f1a" stroke-width="3"></rect>
      <g transform="translate(20, 20)">
        <g shape-rendering="crispEdges">
          <rect x="0" y="0" width="40" height="40" fill="#2a1d0c"></rect>
          <rect x="4" y="4" width="32" height="32" fill="url(#goldMF)"></rect>
          <text x="20" y="26" text-anchor="middle" font-family="Press Start 2P, monospace" font-size="10" fill="#2a1d0c">G</text>
          <rect x="48" y="0" width="40" height="40" fill="#2a1d0c"></rect>
          <rect x="52" y="4" width="32" height="32" fill="#14f195"></rect>
          <rect x="0" y="48" width="88" height="32" fill="#2a1d0c"></rect>
          <rect x="4" y="52" width="80" height="24" fill="#9945ff"></rect>
        </g>
      </g>
      <text x="20" y="140" font-family="Cinzel, serif" font-weight="800" font-size="20">Android Widgets</text>
      <text x="20" y="170" font-size="13" fill="#5b3f1a">Companion widget app for</text>
      <text x="20" y="188" font-size="13" fill="#5b3f1a">GOLD + any EasyA Kickstart</text>
      <text x="20" y="206" font-size="13" fill="#5b3f1a">token. 4 widget styles.</text>
      <text x="20" y="226" font-family="Press Start 2P, monospace" font-size="9" fill="#4a6b2a">HOME-SCREEN PRESENCE</text>
    </g>

    
    <g transform="translate(780, 460)">
      <rect width="300" height="240" fill="#f6ebcb" stroke="#5b3f1a" stroke-width="3"></rect>
      <g transform="translate(20, 20)">
        <g shape-rendering="crispEdges">
          
          <rect x="0" y="0" width="80" height="80" fill="#2a1d0c"></rect>
          <rect x="4" y="4" width="72" height="72" fill="url(#solGrad2)"></rect>
          <rect x="14" y="20" width="14" height="14" fill="#f6ebcb"></rect>
          <rect x="32" y="20" width="14" height="14" fill="#f6ebcb"></rect>
          <rect x="50" y="20" width="14" height="14" fill="#f6ebcb"></rect>
          <rect x="14" y="42" width="14" height="14" fill="#f6ebcb"></rect>
          <rect x="32" y="42" width="14" height="14" fill="#f5c542"></rect>
          <rect x="50" y="42" width="14" height="14" fill="#f6ebcb"></rect>
        </g>
      </g>
      <text x="20" y="140" font-family="Cinzel, serif" font-weight="800" font-size="20">dApp Store Ready</text>
      <text x="20" y="170" font-size="13" fill="#5b3f1a">Functional Android APK built</text>
      <text x="20" y="188" font-size="13" fill="#5b3f1a">for the Solana dApp Store</text>
      <text x="20" y="206" font-size="13" fill="#5b3f1a">audience from day one.</text>
      <text x="20" y="226" font-family="Press Start 2P, monospace" font-size="9" fill="#9945ff">SHIP DESTINATION</text>
    </g>
  </g>

  
  <g transform="translate(120, 720)">
    <rect width="960" height="28" fill="#2a1d0c"></rect>
    <text x="480" y="20" text-anchor="middle" font-family="Press Start 2P, monospace" font-size="11" fill="#f5c542">A REAL ANDROID APP — NOT A WEB GAME WITH A WALLET BUTTON</text>
  </g>
</svg>